<svg xmlns="http://www.w3.org/2000/svg" version="1.1" xmlns:xlink="http://www.w3.org/1999/xlink" width="512" height="512" x="0" y="0" viewBox="0 0 128 128" style="enable-background:new 0 0 512 512" xml:space="preserve" class=""><g><path fill="#1786c4" d="M108.007 88.96H94.645a18.993 18.993 0 0 0-18.994 18.994 18.993 18.993 0 0 0 18.994 18.994h13.362A18.993 18.993 0 0 0 127 107.954a18.993 18.993 0 0 0-18.993-18.993zm-2.961 20.116v7.25a3.72 3.72 0 0 1-7.44 0v-7.25a7.123 7.123 0 0 1-3.415-6.014 7.217 7.217 0 0 1 6.931-7.197 7.13 7.13 0 0 1 3.924 13.211zM88.4 82.17l.691-.188v-3.275a12.234 12.234 0 1 1 24.47 0v3.275l.69.188a22.393 22.393 0 0 1 6.258 2.793l1.445.933v-7.19a20.629 20.629 0 1 0-41.257 0v7.19l1.445-.933A22.41 22.41 0 0 1 88.4 82.17z" opacity="1" data-original="#1786c4" class=""></path><g fill="#3a5062"><path d="M51.56 1.052a23.43 23.43 0 0 0-23.517 23.345l-.05 13.9c-.042 11.352 10.391 27.043 23.331 27.09s23.488-15.567 23.53-26.919l.05-13.9A23.43 23.43 0 0 0 51.56 1.052zM72.253 92.154V78.707a29.034 29.034 0 0 1 .34-4.204 8.865 8.865 0 0 0-9.943 6.504l-4.958 19.21a6.382 6.382 0 0 1-12.513 0l-4.958-19.21a8.891 8.891 0 0 0-10.451-6.448c-5.22 1.097-10.452 2.694-15.671 4.207a12.139 12.139 0 0 0-2.503 1.025 12.839 12.839 0 0 0-6.46 9.582l-4.051 28.04a8.352 8.352 0 0 0 8.259 9.535h65.548a27.294 27.294 0 0 1-2.639-34.794z" fill="#3a5062" opacity="1" data-original="#3a5062" class=""></path></g></g></svg>