<svg height="512pt" viewBox="-70 0 511 512" width="512pt" xmlns="http://www.w3.org/2000/svg"><path d="m318.484375 199.726562h-80.820313v-75.570312c0-23.898438-19.441406-43.335938-43.335937-43.335938h-15.6875c-23.894531 0-43.335937 19.4375-43.335937 43.335938v75.570312h-80.820313v-75.570312c0-68.460938 55.699219-124.15625 124.15625-124.15625h15.6875c68.457031 0 124.15625 55.695312 124.15625 124.15625zm0 0" fill="#576993"/><path d="m178.640625 0c-68.457031 0-124.15625 55.695312-124.15625 124.15625v75.570312h80.820313v-75.570312c0-23.898438 19.441406-43.335938 43.335937-43.335938h7.84375v-80.820312zm0 0" fill="#7987a9"/><path d="m298.542969 512h-224.117188c-40.761719 0-73.925781-33.164062-73.925781-73.925781v-188.058594c0-40.765625 33.164062-73.929687 73.925781-73.929687h224.117188c40.765625 0 73.925781 33.164062 73.925781 73.929687v188.058594c0 40.761719-33.164062 73.925781-73.925781 73.925781zm0 0" fill="#f89618"/><path d="m74.425781 176.085938c-40.761719 0-73.925781 33.164062-73.925781 73.929687v188.058594c0 40.761719 33.164062 73.925781 73.925781 73.925781h112.058594v-335.914062zm0 0" fill="#fab049"/><path d="m186.484375 426.636719c-17.398437 0-31.550781-14.160157-31.550781-31.558594v-43.089844c-12.113282-9.605469-19.226563-24.164062-19.226563-39.75 0-28.003906 22.777344-50.785156 50.777344-50.785156s50.78125 22.78125 50.78125 50.785156c0 15.585938-7.117187 30.144531-19.230469 39.75v43.089844c.003906 17.398437-14.152344 31.558594-31.550781 31.558594zm0 0" fill="#576993"/><path d="m135.707031 312.238281c0 15.585938 7.113281 30.144531 19.226563 39.753907v43.085937c0 17.402344 14.152344 31.558594 31.550781 31.558594v-165.183594c-28 0-50.777344 22.78125-50.777344 50.785156zm0 0" fill="#7987a9"/></svg>