<svg id="Icons" height="512" viewBox="0 0 60 60" width="512" xmlns="http://www.w3.org/2000/svg"><path d="m23.669 47.462a.5.5 0 0 1 -.28-.914l10.311-6.989-13.086 7.554a.5.5 0 0 1 -.517-.855l4.642-2.935-5.932 3.425a.5.5 0 0 1 -.517-.855l5.463-3.435-6.613 3.817a.5.5 0 0 1 -.518-.854l9.429-5.976-10.692 6.172a.5.5 0 0 1 -.513-.857l5.485-3.407-6.315 3.647a.5.5 0 0 1 -.521-.853l15.625-10.047-17.02 9.824a.5.5 0 0 1 -.514-.858l8.814-5.475-9.541 5.509a.5.5 0 0 1 -.511-.859l3.831-2.349-4.286 2.471a.5.5 0 0 1 -.518-.854l16.684-10.6-17.619 10.176a.5.5 0 0 1 -.514-.856l13.429-8.392-14.041 8.105a.5.5 0 0 1 -.517-.855l17.394-11.007-18.079 10.438a.5.5 0 0 1 -.512-.859l10.334-6.384-10.629 6.136a.5.5 0 0 1 -.515-.857l13.576-8.454-13.887 8.016a.5.5 0 0 1 -.512-.858l7.714-4.737-7.807 4.506a.5.5 0 0 1 -.514-.857l12.471-7.744-12.598 7.274a.5.5 0 0 1 -.514-.856l14.142-8.834-14.224 8.21a.5.5 0 0 1 -.513-.859l8.699-5.361-8.6 4.962a.5.5 0 0 1 -.517-.856l15.024-9.448-14.93 8.624a.5.5 0 0 1 -.512-.858l6.562-4.038-6.29 3.63a.5.5 0 0 1 -.52-.855l16.615-10.608-16.318 9.421a.5.5 0 0 1 -.512-.859l3.65-2.243-3.188 1.84a.5.5 0 0 1 -.52-.854l15.04-9.658-14.443 8.334a.5.5 0 0 1 -.518-.854l11.854-7.566-11.08 6.397a.5.5 0 0 1 -.516-.857l5.279-3.3-4.43 2.556a.5.5 0 0 1 -.519-.853l7.949-5.08-6.84 3.948a.5.5 0 0 1 -.524-.851l8.724-5.72-7.212 4.161a.5.5 0 0 1 -.526-.85l6.166-4.088-4.259 2.459a.5.5 0 0 1 -.524-.85l1.847-1.212a.55.55 0 0 1 -.442-.227.5.5 0 0 1 .124-.677l3.592-2.629a.491.491 0 0 1 -.2-.194.5.5 0 0 1 .182-.683l5.809-3.355a.5.5 0 0 1 .545.836l-1.878 1.374 6.106-3.525a.5.5 0 0 1 .525.85l-1.029.675 3.11-1.795a.5.5 0 0 1 .526.85l-6.168 4.089 8.473-4.892a.5.5 0 0 1 .524.85l-8.734 5.725 10.8-6.232a.5.5 0 0 1 .519.853l-7.95 5.081 9.441-5.448a.5.5 0 0 1 .516.857l-5.271 3.3 6.323-3.657a.5.5 0 0 1 .518.854l-11.856 7.571 13.214-7.625a.5.5 0 0 1 .52.853l-15.037 9.657 16.437-9.49a.5.5 0 0 1 .511.859l-3.65 2.244 4.205-2.423a.5.5 0 0 1 .52.855l-16.616 10.603 17.756-10.248a.5.5 0 0 1 .512.858l-6.561 4.038 7.022-4.056a.5.5 0 0 1 .516.855l-15.028 9.45 15.747-9.09a.5.5 0 0 1 .513.858l-8.7 5.362 9.069-5.236a.5.5 0 0 1 .515.856l-14.13 8.827 14.605-8.432a.5.5 0 0 1 .514.857l-12.48 7.75 12.8-7.391a.5.5 0 0 1 .512.858l-7.713 4.737 7.843-4.528a.5.5 0 0 1 .514.858l-13.57 8.459 13.772-7.952a.5.5 0 0 1 .512.859l-10.328 6.376 10.366-5.983a.5.5 0 0 1 .518.856l-17.406 11.013 17.524-10.118a.5.5 0 0 1 .515.857l-13.423 8.392 13.333-7.7a.5.5 0 0 1 .518.855l-16.691 10.597 16.549-9.552a.5.5 0 0 1 .512.858l-3.787 2.322 3.423-1.98a.5.5 0 0 1 .514.857l-8.83 5.487 8.409-4.851a.5.5 0 0 1 .521.853l-15.633 10.054 15.084-8.708a.5.5 0 0 1 .514.858l-5.476 3.4 4.821-2.783a.5.5 0 0 1 .518.854l-9.417 5.969 8.591-4.96a.5.5 0 0 1 .516.856l-5.458 3.432 4.519-2.607a.5.5 0 0 1 .517.855l-4.658 2.944 3.552-2.051a.5.5 0 0 1 .53.846l-10.311 6.995 8.386-4.842a.5.5 0 0 1 .522.852l-1.618 1.04a.507.507 0 0 1 .538.216.5.5 0 0 1 -.129.677l-4.2 3.009.707-.408a.5.5 0 0 1 .5.865l-9.5 5.487a.5.5 0 0 1 -.541-.839l4.193-3.006-8.076 4.662a.5.5 0 0 1 -.522-.852l1.287-.831-3.058 1.77a.5.5 0 0 1 -.25.062z" fill="#4d5b9e"/><path d="m24.13 27.464a.5.5 0 0 1 -.3-.9l2.422-1.856-4.192 2.42a.5.5 0 0 1 -.534-.845l.681-.468-1.488.859a.5.5 0 0 1 -.552-.832l5.95-4.492-7.295 4.211a.5.5 0 0 1 -.546-.835l6.584-4.843-7.479 4.317a.5.5 0 0 1 -.53-.847l3.049-2.053-3.253 1.878a.5.5 0 0 1 -.547-.835l7.214-5.322-7.533 4.347a.5.5 0 0 1 -.525-.849l.5-.332-.264.152a.5.5 0 0 1 -.542-.839l5.23-3.761-4.892 2.825a.5.5 0 0 1 -.543-.838l4-2.89-3.292 1.9a.5.5 0 0 1 -.553-.836l2.705-2-1.547.893a.5.5 0 0 1 -.58-.809l2.285-2.006a.5.5 0 0 1 -.162-.925l3.591-2.074a.5.5 0 0 1 .58.808l-1.834 1.612 4.75-2.743a.5.5 0 0 1 .547.834l-2.706 2 4.155-2.4a.5.5 0 0 1 .543.838l-4 2.89 5.116-2.953a.5.5 0 0 1 .542.839l-5.23 3.76 6.121-3.533a.5.5 0 0 1 .526.849l-.508.336.73-.422a.5.5 0 0 1 .547.835l-7.211 5.325 7.8-4.5a.5.5 0 0 1 .53.846l-3.043 2.057 3.033-1.757a.5.5 0 0 1 .546.835l-6.583 4.843 6.5-3.751a.5.5 0 0 1 .667.156.5.5 0 0 1 -.116.676l-5.954 4.495 5.41-3.123a.5.5 0 0 1 .534.845l-.741.509a.5.5 0 0 1 .486.863l-2.429 1.862.951-.549a.5.5 0 1 1 .5.865l-7.571 4.374a.493.493 0 0 1 -.25.064z" fill="#768ed3"/><path d="m25.65 47.4a.5.5 0 0 1 -.295-.9l5.169-3.778-7.983 4.609a.5.5 0 0 1 -.523-.852l.428-.28-1.632.943a.5.5 0 0 1 -.538-.841l7.624-5.373-9.775 5.642a.5.5 0 0 1 -.529-.847l6.384-4.291-7.806 4.506a.5.5 0 0 1 -.535-.843l9.408-6.527-11.086 6.4a.5.5 0 0 1 -.523-.852l4.811-3.129-5.624 3.246a.5.5 0 0 1 -.522-.851l4.955-3.22-5.682 3.279a.5.5 0 0 1 -.522-.852l4.279-2.766-4.873 2.814a.5.5 0 0 1 -.522-.853l4.275-2.764-4.713 2.72a.5.5 0 0 1 -.53-.846l8.321-5.636-7.539 4.351a.5.5 0 0 1 -.539-.84l8.087-5.728-6.787 3.918a.5.5 0 0 1 -.534-.844l3.6-2.488-1.994 1.15a.5.5 0 0 1 -.568-.819l3.47-2.852a.5.5 0 0 1 -.25-.932l4.693-2.709a.5.5 0 0 1 .568.819l-3.155 2.593 7.4-4.273a.5.5 0 0 1 .534.843l-3.606 2.492 5.5-3.171a.5.5 0 0 1 .539.84l-8.094 5.729 10.242-5.912a.5.5 0 0 1 .53.846l-8.315 5.629 9.751-5.629a.5.5 0 0 1 .522.853l-4.274 2.765 5.009-2.889a.5.5 0 0 1 .521.853l-4.284 2.769 4.882-2.817a.5.5 0 0 1 .523.851l-4.95 3.216 5.477-3.162a.5.5 0 0 1 .522.852l-4.808 3.127 5.215-3.01a.5.5 0 0 1 .536.843l-9.41 6.528 10.075-5.816a.5.5 0 0 1 .529.848l-6.384 4.29 6.644-3.835a.5.5 0 0 1 .538.841l-7.624 5.375 7.852-4.533a.5.5 0 0 1 .524.851l-.424.277.239-.138a.5.5 0 0 1 .545.836l-5.168 3.777 5.032-2.905a.5.5 0 0 1 .552.831l-2.758 2.088 2.4-1.385a.5.5 0 0 1 .5.865l-9.344 5.394a.5.5 0 0 1 -.552-.831l2.753-2.08-6.134 3.537a.491.491 0 0 1 -.25.063z" fill="#768ed3"/><path d="m52.417 36.489a.5.5 0 0 1 -.412-.783l1.32-1.924-2.045 1.181a.5.5 0 0 1 -.617-.772l1.717-1.86-1.1.635a.5.5 0 0 1 -.628-.761l1.985-2.285-1.357.78a.5.5 0 0 1 -.621-.767l1.619-1.8-1 .576a.5.5 0 0 1 -.614-.776l1-1.059-.542.312a.5.5 0 0 1 -.62-.768l.769-.848-.653.376a.5.5 0 0 1 -.655-.724l1.065-1.48-1.508.871a.5.5 0 0 1 -.661-.719l.974-1.391-2 1.154a.5.5 0 0 1 -.636-.751l.847-1.027-2.825 1.631a.5.5 0 0 1 -.5-.866l5.219-3.013a.5.5 0 0 1 .636.751l-.846 1.027 1.556-.9a.5.5 0 0 1 .66.718l-.973 1.392 1.575-.909a.5.5 0 0 1 .655.724l-1.065 1.48 1.4-.808a.5.5 0 0 1 .62.769l-.767.847.719-.416a.5.5 0 0 1 .615.776l-1 1.059.792-.457a.5.5 0 0 1 .621.768l-1.62 1.8 1.2-.7a.5.5 0 0 1 .628.761l-1.984 2.284 1.365-.788a.5.5 0 0 1 .617.772l-1.718 1.861 1.108-.64a.5.5 0 0 1 .662.716l-1.321 1.925.667-.385a.5.5 0 0 1 .724.594l-.2.6a.49.49 0 0 1 .167.174.5.5 0 0 1 -.183.682l-.506.292a.5.5 0 0 1 -.723-.593l.072-.213-1.425.822a.489.489 0 0 1 -.249.073z" fill="#d1d7db"/><path d="m40.053 36.478a.5.5 0 0 1 -.463-.69l.384-.937-2.694 1.554a.5.5 0 0 1 -.617-.772l1.717-1.858-1.1.635a.5.5 0 0 1 -.609-.78l1.473-1.53-.864.5a.5.5 0 0 1 -.624-.765l1.911-2.155-1.287.743a.5.5 0 0 1 -.6-.789l1.851-1.819-1.251.722a.5.5 0 0 1 -.543-.838l4.013-2.9-3.3 1.9a.5.5 0 0 1 -.557-.827l3.518-2.73-2.172 1.258a.5.5 0 0 1 -.57-.816l1.972-1.648a.5.5 0 0 1 -.04-.887l3.591-2.074a.5.5 0 0 1 .571.816l-1.029.86 3.521-2.032a.5.5 0 0 1 .557.827l-3.512 2.729 5.359-3.094a.5.5 0 0 1 .543.838l-7.135 5.165.026.031a.5.5 0 0 1 -.048.659l-1.853 1.82.549-.317a.5.5 0 0 1 .624.765l-1.916 2.158 1.279-.737a.5.5 0 0 1 .609.78l-1.473 1.525.87-.5a.5.5 0 0 1 .618.772l-1.717 1.858 1.106-.639a.5.5 0 0 1 .713.622l-.433 1.057a.5.5 0 0 1 .227.932l-.945.546a.5.5 0 0 1 -.25.062z" fill="#d1d7db"/><path d="m37.1 59.47a.5.5 0 0 1 -.28-.915l9.747-6.555-11.582 6.688a.5.5 0 0 1 -.515-.857l1.522-.956-1.824 1.053a.5.5 0 0 1 -.527-.849l11.966-7.965-12.247 7.072a.5.5 0 0 1 -.526-.85l12.356-8.191-11.91 6.876a.5.5 0 0 1 -.524-.851l11.03-7.258-10.506 6.066a.5.5 0 0 1 -.526-.85l10.546-6.986-10.02 5.781a.5.5 0 0 1 -.53-.847l9.664-6.528-9.134 5.272a.5.5 0 0 1 -.525-.849l4.876-3.223-4.351 2.512a.5.5 0 0 1 -.529-.848l4.062-2.736-3.533 2.039a.5.5 0 0 1 -.542-.839l4.769-3.432-4.227 2.44a.5.5 0 0 1 -.537-.842l1.351-.948-.814.469a.5.5 0 0 1 -.551-.832l1.671-1.268-1.122.647a.5.5 0 0 1 -.573-.813l1.256-1.067-.586.338a.5.5 0 0 1 -.6-.795l.925-.873a.488.488 0 0 1 -.185-.184.5.5 0 0 1 .182-.683l2.377-1.372a.5.5 0 0 1 .595.8l-.155.148 1.743-1.009a.5.5 0 0 1 .573.813l-1.255 1.066 3.256-1.879a.5.5 0 0 1 .552.831l-1.672 1.269 3.635-2.1a.5.5 0 0 1 .537.841l-1.352.95 3.1-1.791a.5.5 0 0 1 .542.839l-4.767 3.43 7.4-4.269a.5.5 0 0 1 .529.847l-4.062 2.737 6.208-3.584a.5.5 0 0 1 .526.849l-4.872 3.22 7.049-4.069a.5.5 0 0 1 .53.846l-9.667 6.531 11.769-6.794a.5.5 0 0 1 .527.849l-10.534 6.981 11.313-6.533a.5.5 0 0 1 .524.851l-11.032 7.259 11.08-6.4a.5.5 0 0 1 .527.85l-12.355 8.19 11.854-6.84a.5.5 0 0 1 .527.848l-11.97 7.967 11.443-6.605a.5.5 0 0 1 .515.856l-1.517.953 1-.578a.5.5 0 0 1 .529.848l-9.747 6.554 9.22-5.322a.5.5 0 0 1 .531.846l-7.36 5.008 6.829-3.943a.5.5 0 0 1 .544.837l-7 5.08 6.456-3.727a.5.5 0 0 1 .53.846l-1.012.685.482-.277a.5.5 0 0 1 .551.831l-3.23 2.449 2.679-1.546a.5.5 0 0 1 .577.812l-2.413 2.088 1.82-1.051a.5.5 0 0 1 .621.767l-1.285 1.418a.538.538 0 0 1 .444.25.5.5 0 0 1 -.182.683l-2.376 1.372a.5.5 0 0 1 -.621-.768l1.151-1.271-3.648 2.1a.5.5 0 0 1 -.578-.811l2.415-2.084-5.016 2.9a.5.5 0 0 1 -.552-.831l3.23-2.449-5.682 3.275a.5.5 0 0 1 -.53-.846l1.011-.685-2.653 1.531a.5.5 0 0 1 -.544-.837l7-5.079-10.248 5.916a.5.5 0 0 1 -.531-.845l7.362-5.009-10.141 5.854a.5.5 0 0 1 -.251.07z" fill="#fcbe5d"/><path d="m46.845 51.47a.5.5 0 0 1 -.393-.81l.133-.168-1.526.881a.5.5 0 0 1 -.613-.777l1.15-1.209-1.796 1.035a.5.5 0 0 1 -.573-.815l.327-.275a.5.5 0 0 1 -.489-.855l1.028-.853-.207.119a.5.5 0 0 1 -.606-.784l2.241-2.265-1.908 1.1a.5.5 0 0 1 -.6-.792l1.176-1.14-.911.526a.5.5 0 0 1 -.621-.769l.818-.9a.492.492 0 0 1 -.3-.233.5.5 0 0 1 .182-.682l2.049-1.183a.5.5 0 0 1 .621.769l-.493.545 1.659-.958a.5.5 0 0 1 .6.792l-1.173 1.137 1.628-.939a.5.5 0 0 1 .606.784l-2.242 2.266 2.088-1.208a.5.5 0 0 1 .569.817l-1.187.985a.513.513 0 0 1 .48.208.5.5 0 0 1 -.087.669l-.319.27a.5.5 0 0 1 .544.81l-1.15 1.21.792-.457a.5.5 0 0 1 .642.742l-.417.529a.5.5 0 0 1 .274.223.5.5 0 0 1 -.183.683l-1.567.9a.49.49 0 0 1 -.246.072z" fill="#a87e48"/><g fill="#262626"><path d="m55.724 34.5c.413-6.865.064-15.036-8.581-15.806-6.219-25.47-43.243-22.951-46.701 2.721-2.287 17.356 15.775 30.65 31.822 24.3.631 4.5-2.258 12.347 3.81 13.779 6.269.206 12.585-.01 18.87.065 3.953-.071 5.278-3.905 4.792-7.3v-11.343c.438-2.882-.814-6.083-4.012-6.416zm-1.448-5.775v5.7q-1.275-.016-2.552-.012c-.187-4.082 1.328-10.447-4.076-11.606a.837.837 0 0 0 -1.064-.143c-7.156-.1-6.434 6.6-6.308 11.752-.851 0-1.7 0-2.552.01.162-4.467-.922-9.692 2.826-13.031 5.492-5.077 14.302.268 13.726 7.334zm-11.976-3.172a3.851 3.851 0 0 1 3.945-2.153 23.055 23.055 0 0 1 -2.493 11.025l-2.028-.007c.228-2.918-.596-6.118.576-8.865zm5.416-1.662c3.812 2.074 2.245 6.992 2.56 10.527-1.682.009-3.362.026-5.042.015a23.7 23.7 0 0 0 2.482-10.542zm-45.985.442c.129-27.089 36.705-31.565 43.856-5.653-7.257.316-10.175 7.156-9.311 13.6a15.561 15.561 0 0 0 -9.716-5.4c8.922-2.19 9.614-15.212.579-17.8-12.216-3.38-18.569 14.173-5.853 17.906a15.771 15.771 0 0 0 -12.831 13.05 23.076 23.076 0 0 1 -6.724-15.703zm15.648-1.326c-7.663-13.275 13.381-20.216 14.897-4.813a8.138 8.138 0 0 1 -14.897 4.813zm-6.879 18.849c-.261-.2-.512-.419-.763-.635a14.149 14.149 0 0 1 26.445-6.662c-5.121.9-3.772 6.818-3.917 10.617a22.331 22.331 0 0 1 -21.765-3.32zm44.556 16.581c-22.072-.985-21.685 5.049-21.319-14.185.307-2.657-.923-6 1.285-8.042a4.68 4.68 0 0 1 3.12-.647h14.531c2.711-.406 5.685.633 5.59 3.8.062 3.381 0 6.768 0 10.149.001 2.847 1.042 8.744-3.207 8.925z"/><path d="m49.58 42.881c-1.6-4.77-9.658-1.211-6.71 3.124a1.227 1.227 0 0 0 .213.217c-.379 2.03-1.257 5.173 1.87 5.2 4.307.431 4.974-1.7 3.971-5.433a3.315 3.315 0 0 0 .656-3.108zm-2.166 7.6c-4.091.863-3.427-1.572-2.87-4.5-.96-1.236-1.236-3.274.282-4.277 2.005-1.157 4.135 1.552 3.254 3.452-.156.4-.635.75-.614 1.17.007 1.319 1.096 3.089-.052 4.153z"/></g></svg>